<svg width="63" height="62" viewBox="0 0 63 62" fill="none" xmlns="http://www.w3.org/2000/svg">
<path fill-rule="evenodd" clip-rule="evenodd" d="M1.23372 0C0.552356 0 0 0.552356 0 1.23372V46.8814C0 47.5628 0.552355 48.1151 1.23372 48.1151H17.5058V60.7638C17.5058 61.8629 18.8347 62.4134 19.6119 61.6362L33.133 48.1151H61.7663C62.4477 48.1151 63 47.5628 63 46.8814V1.23372C63 0.552356 62.4477 0 61.7663 0H1.23372Z" fill="#61C435"/>
<path d="M18.1942 37.1127C18.1424 37.1161 18.0904 37.1084 18.0418 37.0901C17.9932 37.0718 17.9491 37.0434 17.9123 37.0066C17.8756 36.9699 17.8472 36.9258 17.8289 36.8772C17.8106 36.8286 17.8029 36.7766 17.8063 36.7248V26.642L10.0336 11.2095C10.0095 11.1667 9.99793 11.1179 10.0003 11.0689C10.0027 11.0198 10.0189 10.9725 10.047 10.9322C10.0752 10.892 10.1141 10.8605 10.1594 10.8414C10.2046 10.8224 10.2543 10.8165 10.3028 10.8244H15.3312C15.4564 10.8173 15.5805 10.8509 15.6849 10.9204C15.7893 10.9898 15.8684 11.0912 15.9102 11.2095L20.6664 20.8001H20.7822L25.5414 11.2095C25.5832 11.0912 25.6622 10.9898 25.7666 10.9204C25.871 10.8509 25.9952 10.8173 26.1203 10.8244H30.9924C31.2645 10.8244 31.3803 11.0155 31.2645 11.2095L23.4918 26.642V36.7364C23.4952 36.7879 23.4875 36.8396 23.4694 36.888C23.4513 36.9364 23.4231 36.9804 23.3867 37.0171C23.3503 37.0538 23.3065 37.0823 23.2583 37.1008C23.21 37.1192 23.1584 37.1273 23.1068 37.1243L18.1942 37.1127Z" fill="white"/>
<path d="M31.5376 33.1936C31.4482 33.1098 31.3945 32.9949 31.3875 32.8726C31.3805 32.7503 31.4208 32.6299 31.4999 32.5365L34.7711 29.4361C34.8059 29.3945 34.8487 29.3603 34.8969 29.3356C34.9452 29.3109 34.9979 29.2963 35.052 29.2925C35.1061 29.2887 35.1604 29.2959 35.2116 29.3136C35.2628 29.3313 35.3099 29.3592 35.3501 29.3956C35.4312 29.4621 35.6396 29.6329 35.7149 29.685C37.4286 31.0051 39.6982 32.2007 42.3528 32.2007C45.1 32.2007 46.6459 30.924 46.6459 29.0655C46.6459 27.5197 45.7195 26.5528 42.5931 26.1273L41.2006 25.9362C35.8625 25.198 32.8866 22.6853 32.8866 18.0419C32.8866 13.2075 36.5225 10 42.208 10C45.6471 10 48.8662 11.0161 51.0634 12.6864L51.515 13.0193C51.7727 13.2249 51.735 13.3841 51.544 13.5983L48.3249 16.635C48.1715 16.8319 47.8675 16.69 47.8357 16.6698C45.9916 15.5523 44.1968 14.9618 42.2023 14.9618C39.8864 14.9618 38.6821 16.1574 38.6821 17.8219C38.6821 19.3301 39.7648 20.297 42.7812 20.7168L44.1737 20.9078C49.59 21.6431 52.453 24.1182 52.453 28.8774C52.453 33.6365 48.9299 37.1538 42.1241 37.1538C38.1379 37.1538 34.2588 35.6166 32.1629 33.7176C32.105 33.6742 31.5955 33.2515 31.5376 33.1936Z" fill="white"/>
</svg>
