<?xml version="1.0" encoding="utf-8"?>
<!-- Generator: Adobe Illustrator 28.0.0, SVG Export Plug-In . SVG Version: 6.00 Build 0)  -->
<svg version="1.1" id="Layer_1" xmlns="http://www.w3.org/2000/svg" xmlns:xlink="http://www.w3.org/1999/xlink" x="0px" y="0px"
	 viewBox="0 0 497 201" style="enable-background:new 0 0 497 201;" xml:space="preserve">
<style type="text/css">
	.st0{fill-rule:evenodd;clip-rule:evenodd;fill:#60CA23;}
	.st1{fill:#FFFFFF;}
</style>
<g>
	<path class="st0" d="M5,0C2.2,0,0,2.2,0,5v147c0,2.8,2.2,5,5,5h123v40.1c0,2.6,3.1,4,5,2.2l45.6-42.3H492c2.8,0,5-2.2,5-5V5
		c0-2.8-2.2-5-5-5H5z"/>
	<path class="st1" d="M53.4,111.9c-0.1,0-0.3,0-0.4-0.1c-0.1,0-0.2-0.1-0.3-0.2s-0.2-0.2-0.2-0.3c0-0.1-0.1-0.3-0.1-0.4V84.5
		L32.1,44.2C32,44,32,43.9,32,43.8c0-0.1,0-0.3,0.1-0.4c0.1-0.1,0.2-0.2,0.3-0.2c0.1,0,0.2-0.1,0.4,0h13.1c0.3,0,0.7,0.1,0.9,0.3
		c0.3,0.2,0.5,0.4,0.6,0.8l12.4,25.1h0.3l12.4-25.1c0.1-0.3,0.3-0.6,0.6-0.8c0.3-0.2,0.6-0.3,0.9-0.3h12.7c0.7,0,1,0.5,0.7,1
		L67.3,84.5v26.4c0,0.1,0,0.3-0.1,0.4c0,0.1-0.1,0.2-0.2,0.3c-0.1,0.1-0.2,0.2-0.3,0.2c-0.1,0-0.3,0.1-0.4,0.1L53.4,111.9z"/>
	<path class="st1" d="M92.3,96.3c-1.5-4.8-1.9-8.6-1.9-18.8c0-10.2,0.4-14.1,1.9-18.8c3.5-11.1,13-16.6,25.1-16.6
		s21.5,5.6,25.1,16.6c1.5,4.8,1.9,8.6,1.9,18.8s-0.4,14.1-1.9,18.8c-3.5,11.1-13,16.6-25.1,16.6S95.9,107.4,92.3,96.3z M128.2,92.3
		c0.8-2.4,1.1-5.8,1.1-14.8c0-9-0.3-12.3-1.1-14.8c-1.5-4.8-5.2-7.6-10.8-7.6c-5.7,0-9.3,2.8-10.8,7.6c-0.8,2.4-1.1,5.8-1.1,14.8
		c0,9,0.3,12.3,1.1,14.8c1.5,4.8,5.2,7.6,10.8,7.6C123.1,99.8,126.7,97,128.2,92.3z"/>
	<path class="st1" d="M214.2,102.6c-0.2-0.2-0.4-0.5-0.4-0.8c0-0.3,0.1-0.6,0.3-0.9l8.6-8.1c0.1-0.1,0.2-0.2,0.3-0.3
		c0.1-0.1,0.3-0.1,0.4-0.1c0.1,0,0.3,0,0.4,0.1c0.1,0,0.3,0.1,0.4,0.2c0.2,0.2,0.8,0.6,1,0.8c4.5,3.5,10.4,6.6,17.4,6.6
		c7.2,0,11.2-3.3,11.2-8.2c0-4-2.4-6.6-10.6-7.7l-3.6-0.5c-14-1.9-21.7-8.5-21.7-20.6c0-12.6,9.5-21,24.4-21c9,0,17.4,2.7,23.1,7
		l1.2,0.9c0.7,0.5,0.6,1,0.1,1.5l-8.4,7.9c-0.4,0.5-1.2,0.1-1.3,0.1c-4.8-2.9-9.5-4.5-14.7-4.5c-6.1,0-9.2,3.1-9.2,7.5
		c0,3.9,2.8,6.5,10.7,7.6l3.6,0.5c14.2,1.9,21.6,8.4,21.6,20.8c0,12.4-9.2,21.6-27,21.6c-10.4,0-20.6-4-26-9
		C215.6,103.9,214.3,102.8,214.2,102.6z"/>
	<path class="st1" d="M404.7,44.2c0-0.1,0-0.3,0.1-0.4c0-0.1,0.1-0.2,0.2-0.3s0.2-0.2,0.3-0.2c0.1,0,0.3-0.1,0.4-0.1h12.1
		c0.4,0,0.7,0.1,1,0.2c0.3,0.2,0.6,0.4,0.7,0.8l24.3,43.3h0.5V44.2c0-0.1,0-0.3,0.1-0.4c0-0.1,0.1-0.2,0.2-0.3
		c0.1-0.1,0.2-0.2,0.3-0.2c0.1,0,0.3-0.1,0.4-0.1h11.4c0.1,0,0.3,0,0.4,0.1c0.1,0,0.2,0.1,0.3,0.2c0.1,0.1,0.2,0.2,0.2,0.3
		c0,0.1,0.1,0.3,0.1,0.4v66.7c0,0.1,0,0.3-0.1,0.4c0,0.1-0.1,0.2-0.2,0.3c-0.1,0.1-0.2,0.2-0.3,0.2c-0.1,0-0.3,0.1-0.4,0.1h-12
		c-0.4,0-0.7-0.1-1-0.2c-0.3-0.2-0.6-0.5-0.7-0.8l-24.4-43.1h-0.5v43.1c0,0.1,0,0.3-0.1,0.4c0,0.1-0.1,0.2-0.2,0.3s-0.2,0.2-0.3,0.2
		c-0.1,0-0.3,0.1-0.4,0.1h-11.4c-0.1,0-0.3,0-0.4-0.1c-0.1,0-0.2-0.1-0.3-0.2c-0.1-0.1-0.2-0.2-0.2-0.3c0-0.1-0.1-0.3-0.1-0.4
		L404.7,44.2z"/>
	<path class="st1" d="M154,86.6V44.2c0-0.1,0-0.3,0.1-0.4c0-0.1,0.1-0.2,0.2-0.3s0.2-0.2,0.3-0.2c0.1,0,0.3-0.1,0.4-0.1h12.9
		c0.1,0,0.3,0,0.4,0.1c0.1,0,0.2,0.1,0.3,0.2c0.1,0.1,0.2,0.2,0.2,0.3c0,0.1,0.1,0.3,0.1,0.4V87c0,8.2,4.5,12.9,11.5,12.9
		s11.4-4.7,11.4-12.9V44.2c0-0.1,0-0.3,0.1-0.4c0-0.1,0.1-0.2,0.2-0.3c0.1-0.1,0.2-0.2,0.3-0.2c0.1,0,0.3-0.1,0.4-0.1h12.9
		c0.1,0,0.3,0,0.4,0.1c0.1,0,0.2,0.1,0.3,0.2c0.1,0.1,0.2,0.2,0.2,0.3c0,0.1,0.1,0.3,0.1,0.4v42.5c0,17.1-10.9,26.4-26.3,26.4
		C165.1,113,154,103.7,154,86.6z"/>
	<path class="st1" d="M357.1,44.2c0.1-0.3,0.2-0.6,0.5-0.7c0.2-0.2,0.5-0.3,0.8-0.3h12.7c0.3,0,0.6,0.1,0.8,0.3
		c0.2,0.2,0.4,0.4,0.5,0.7l23.3,66.7c0.2,0.6,0,1-0.7,1h-13.1c-0.3,0-0.6-0.1-0.9-0.3c-0.2-0.2-0.4-0.5-0.5-0.8l-3.9-12h-24.1
		l-3.8,12c0,0.3-0.2,0.6-0.5,0.8c-0.2,0.2-0.5,0.3-0.9,0.2h-13.2c-0.7,0-0.9-0.4-0.7-1L357.1,44.2z M372.6,86.2l-7.8-24.1h-0.3
		l-7.8,24.1H372.6z"/>
	<path class="st1" d="M277.6,77.5c0-10.6,0.4-14.1,1.9-18.6C283.1,47.7,291.9,42,304,42c11.6,0,20.1,5.7,24,15.3
		c0.1,0.1,0.1,0.2,0.1,0.4c0,0.1,0,0.3-0.1,0.4c-0.1,0.1-0.1,0.2-0.2,0.3c-0.1,0.1-0.2,0.1-0.4,0.1l-11,4.9
		c-0.1,0.1-0.3,0.1-0.4,0.1c-0.1,0-0.3,0-0.4-0.1c-0.1,0-0.3-0.1-0.4-0.2c-0.1-0.1-0.2-0.2-0.2-0.4c-1.9-4.4-5.2-7.8-10.9-7.8
		c-5.4,0-8.8,2.8-10.3,7.6c-0.8,2.5-1.1,5-1.1,14.8s0.3,12.2,1.1,14.8c1.5,4.8,5,7.6,10.3,7.6c5.8,0,9-3.3,10.9-7.8
		c0-0.1,0.1-0.3,0.2-0.4c0.1-0.1,0.2-0.2,0.4-0.2c0.1,0,0.3-0.1,0.4-0.1c0.1,0,0.3,0.1,0.4,0.1l11,5c0.1,0,0.3,0.1,0.4,0.1
		c0.1,0.1,0.2,0.2,0.2,0.3c0.1,0.1,0.1,0.3,0.1,0.4c0,0.1-0.1,0.3-0.2,0.4c-3.8,9.6-12.3,15.3-24,15.3c-12,0-20.8-5.7-24.5-16.9
		C278,91.7,277.6,88.1,277.6,77.5z"/>
</g>
</svg>
